<svg xmlns="http://www.w3.org/2000/svg" width="269.762" height="400.808" viewBox="0 0 269.762 400.808">
    <g id="humaaans_standing-13" data-name="humaaans/standing-13" transform="translate(-27.572 -38.951)">
      <g id="humaaan-5" transform="translate(27.572 38.951)">
        <g id="Head_Front_Long" data-name="Head/Front/Long" transform="matrix(0.966, -0.259, 0.259, 0.966, 86.076, 16.415)">
          <path id="Hair-Back" d="M44.253,17.728C47.673,30.079,52.2,58.4,47.635,62.82H18.926l-.009-.152A21.288,21.288,0,0,1,0,41.513V21.285A21.285,21.285,0,0,1,21.285,0h1.98A21.291,21.291,0,0,1,44.253,17.728Z" transform="translate(13.86 0)" fill="#191847" fill-rule="evenodd"/>
          <g id="Head" transform="translate(16.83 3.925)">
            <path id="Path_3" data-name="Path 3" d="M8.179,33.842C3.618,28.535.53,22.031,1.046,14.743c1.486-21,30.978-16.379,36.715-5.781S42.816,46.444,35.4,48.338c-2.957.755-9.256-1.1-15.666-4.925L23.76,71.629H0Z" transform="translate(0 0)" fill="#f7d48d" fill-rule="evenodd"/>
          </g>
          <path id="Hair-Front" d="M31.432,33.239c1.095,11.655.656,24.965-2.606,28.124H.116c-1.6-27.546,13.86-16.879,13.86-42.815.964-.933,1.875-1.857,2.776-2.654l-.032-.763Q24.177,0,35.641,0C47.1,0,50.723,5.287,53.8,9.776c-2.3,7.835-11.244,9-19.189,13.881a5.417,5.417,0,1,0-3.431,9.587Q31.309,33.244,31.432,33.239Z" transform="translate(0 0.981)" fill="#191847" fill-rule="evenodd"/>
        </g>
        <g id="Bottom_Standing_Skirt" data-name="Bottom/Standing/Skirt" transform="translate(0 160.192)">
          <path id="Skirt-Shadow" d="M105.514,104.377q35.624,9.925,61.47,9.925T215,99.017Q180.137,88.83,157.58,88.83T105.514,104.377Z" transform="translate(-8.692 -2.875)" fill="#1f28cf" fill-rule="evenodd"/>
          <path id="Leg" d="M189.649,116.193a5.6,5.6,0,0,1-.576-1.12C185.9,106.71,135.053,16.494,129.987,0h57.246c3.852,12.541,21.186,91.239,23.627,106.94,7.7,24.767,23.545,104.98,25.569,110.537,2.128,5.846-9.847,11.936-13.038,4.749-5.078-11.435-17.176-43.076-22.564-62.4C195.776,141.719,191.665,125.423,189.649,116.193Z" transform="translate(-10.798 4.771)" fill="#f7d48d" fill-rule="evenodd"/>
          <path id="Leg-2" data-name="Leg" d="M132.569,127.207C109.322,133.06,24.292,143.642,18.457,145.3c-6,1.707-11.266-10.618-3.846-13.287,11.806-4.249,44.336-14.063,64.059-18.069,15.864-3.222,30.34-5.851,40.059-7.39C117.9,79.359,114.141,14.1,116.608,0h50.653c-2.366,13.517-22.364,112.143-26.08,122.015-1.18,3.525-4.7,5.082-8.612,5.192Z" transform="translate(-0.553 4.771)" fill="#f7d48d" fill-rule="evenodd"/>
          <g id="Accessories_Shoe_Flat-Sneaker" data-name="Accessories/Shoe/Flat-Sneaker" transform="translate(20.15 130.735) rotate(80)">
            <path id="shoe" d="M1.661,6.009A21.256,21.256,0,0,0,0,12.646a49.676,49.676,0,0,0,.892,7.815H56.729q2.176-7.2-2.513-7.769t-7.791-1.036L20.473.086a.99.99,0,0,0-1.307.5l-.011.026L17.486,4.66a17.8,17.8,0,0,1-7.055,2.025A15.977,15.977,0,0,1,4.341,4.9h0a1.98,1.98,0,0,0-2.625.975Q1.686,5.943,1.661,6.009Z" transform="translate(0 0)" fill="#e4e4e4" fill-rule="evenodd"/>
          </g>
          <g id="Accessories_Shoe_Flat-Sneaker-2" data-name="Accessories/Shoe/Flat-Sneaker" transform="translate(207.296 220.154)">
            <path id="shoe-2" data-name="shoe" d="M2.745,26.95a21.256,21.256,0,0,0-1.661,6.637A49.676,49.676,0,0,0,1.975,41.4H57.812q2.176-7.2-2.513-7.769T47.508,32.6L21.556,21.027a.99.99,0,0,0-1.307.5l-.011.026L18.569,25.6a17.8,17.8,0,0,1-7.055,2.025,15.977,15.977,0,0,1-6.091-1.781h0a1.98,1.98,0,0,0-2.625.975Q2.769,26.884,2.745,26.95Z" transform="translate(-1.083 -20.941)" fill="#e4e4e4" fill-rule="evenodd"/>
          </g>
          <path id="Skirt" d="M124.559-.449q33.481-9.542,63.359,0c6.929,31.5,23.768,44,26.729,92.284-33.66,16.66-75.238-11.882-109.888,4.365C94.86,73.474,108.72,18.746,124.559-.449Z" transform="translate(-8.341 5.22)" fill="#fb4214" fill-rule="evenodd"/>
        </g>
        <g id="Body_Pointing-Forward" data-name="Body/Pointing-Forward" transform="translate(82.35 72.309) rotate(-10)">
          <path id="Skin" d="M0,34.885,34.362,16.157A84.839,84.839,0,0,1,51.252.425c1.694-.7,4.658-1.13,1.886,3.765s-5.465,10.168-4.053,11.676,4.933-.6,6.618,1.907q1.683,2.506-18.045,7.916L12.689,48.437Zm53.817,15.8L68.91,42.434q3.176-12.029,7.595-12.1c2.263-1.048-1.677,9.085,2.612,8.206s14.759-8.627,16.562-7.054c2.669,2.327.29,9.474-2.514,13.028-5.24,6.644-9.579,8.916-20.3,11.891q-8.41,2.333-18.186,9.354Z" transform="translate(80.599 7.18)" fill="#f7d48d" fill-rule="evenodd"/>
          <path id="Sleeve" d="M5.442,6.234A84.738,84.738,0,0,0,52.2,0L56.51,15.793c-13.491,9.674-31.4,16.542-45.677,13.869C-.42,27.555-4.043,13.034,5.442,6.234Z" transform="translate(57.514 32.586) rotate(-9)" fill="#d7dded" fill-rule="evenodd"/>
          <path id="Clothes" d="M80.07,61.826q19.166,4.756,64.281-11.218,11.19,23.037,10.346,32.847c-25.8,13.411-47.915,19.39-66.134,19.785.579,10.758-.737,20.993-5.157,30.346-9.087,19.228-62.3,1.421-80.189,4.925C-7.988,102.3,13.676,87.59,13.693,64.422,13.712,39.052,34.184,0,37.2,0H64.665C66.181,19.376,73.809,40.73,80.07,61.826Z" transform="translate(0 0)" fill="#d7dded" fill-rule="evenodd"/>
        </g>
      </g>
    </g>
  </svg>