<svg xmlns="http://www.w3.org/2000/svg" viewBox="0 0 225.85105 219.69765">
  <title>Asset 3</title>
  <g id="a989c344-fe4a-4fa9-82bf-e894b297268b" data-name="Layer 2">
    <g id="a909697f-5092-4c9e-bb2b-11ad70f44830" data-name="Layer 1">
      <g>
        <g>
          <path d="M9.09227,9.59275a.49861.49861,0,0,1-.35349-.1464L.14648.85355a.5.5,0,0,1,.7071-.707l8.5923,8.5927a.5.5,0,0,1-.35361.8535Z" style="fill: #e94100"/>
          <path d="M.50008,9.59275a.5.5,0,0,1-.3536-.8535L8.73878.14655a.5.5,0,0,1,.7071.707L.85358,9.44635A.49863.49863,0,0,1,.50008,9.59275Z" style="fill: #e94100"/>
        </g>
        <g>
          <path d="M225.35108,219.69765a.49855.49855,0,0,1-.3535-.1465l-8.59281-8.5928a.49993.49993,0,0,1,.707-.707l8.5928,8.5927a.50005.50005,0,0,1-.3535.8536Z" style="fill: #e94100"/>
          <path d="M216.75828,219.69765a.50005.50005,0,0,1-.35351-.8536l8.59281-8.5927a.49992.49992,0,0,1,.707.707l-8.5928,8.5928A.49855.49855,0,0,1,216.75828,219.69765Z" style="fill: #e94100"/>
        </g>
      </g>
    </g>
  </g>
</svg>
