<svg xmlns="http://www.w3.org/2000/svg" viewBox="0 0 287.6255 103.9521">
  <title>Asset 2</title>
  <g id="ae66d458-3df6-4d81-ae7b-4265900bd970" data-name="Layer 2">
    <g id="ac72492e-bcbc-4dcb-a773-551d5a5e6c68" data-name="Layer 1">
      <g>
        <path d="M4.667,9.3335a4.66675,4.66675,0,1,1,4.6665-4.667A4.67247,4.67247,0,0,1,4.667,9.3335ZM4.667,1A3.66675,3.66675,0,1,0,8.3335,4.6665,3.671,3.671,0,0,0,4.667,1Z" style="fill: #fff"/>
        <path d="M282.9585,103.9521a4.6665,4.6665,0,1,1,4.667-4.666A4.67112,4.67112,0,0,1,282.9585,103.9521Zm0-8.333a3.6665,3.6665,0,1,0,3.667,3.667A3.67078,3.67078,0,0,0,282.9585,95.6191Z" style="fill: #fff"/>
      </g>
    </g>
  </g>
</svg>
