<svg xmlns="http://www.w3.org/2000/svg" viewBox="0 0 162.1401 140.5601">
  <title>Asset 1</title>
  <g id="b705c5e7-0139-42a6-8a21-f47c22fadc48" data-name="Layer 2">
    <g id="a81109a4-e9d5-4628-b166-6383d27abb28" data-name="Layer 1">
      <g>
        <path d="M121.3604,1A.54163.54163,0,0,1,121,.8599.52335.52335,0,0,1,120.8604.5a.42845.42845,0,0,1,.04-.1899A.54978.54978,0,0,1,121,.1499.62518.62518,0,0,1,121.1704.04a.50169.50169,0,0,1,.3799,0,.575.575,0,0,1,.1602.1099.58541.58541,0,0,1,.1098.1602A.43559.43559,0,0,1,121.8604.5a.40847.40847,0,0,1-.0401.1899.50028.50028,0,0,1-.1098.17A.49978.49978,0,0,1,121.3604,1Z" style="fill: #fff"/>
        <path d="M112.8003.5a.50126.50126,0,0,1,.5-.5h0a.50158.50158,0,0,1,.5.5h0a.49508.49508,0,0,1-.5.5h0A.49477.49477,0,0,1,112.8003.5Zm-8.0601,0a.50808.50808,0,0,1,.5-.5h0a.50158.50158,0,0,1,.5.5h0a.49508.49508,0,0,1-.5.5h0A.50126.50126,0,0,1,104.7402.5ZM96.6904.5a.50132.50132,0,0,1,.5-.5h0a.508.508,0,0,1,.5.5h0a.50119.50119,0,0,1-.5.5h0A.49483.49483,0,0,1,96.6904.5Zm-8.06,0a.50126.50126,0,0,1,.5-.5h0a.50158.50158,0,0,1,.5.5h0a.49508.49508,0,0,1-.5.5h0A.49477.49477,0,0,1,88.6304.5ZM80.5703.5a.50808.50808,0,0,1,.5-.5h0a.50158.50158,0,0,1,.5.5h0a.49508.49508,0,0,1-.5.5h0A.50126.50126,0,0,1,80.5703.5Zm-8.06,0a.508.508,0,0,1,.5-.5h0a.50165.50165,0,0,1,.5.5h0a.49514.49514,0,0,1-.5.5h0A.50119.50119,0,0,1,72.5103.5ZM64.4605.5a.50126.50126,0,0,1,.5-.5h0a.50842.50842,0,0,1,.5.5h0a.50158.50158,0,0,1-.5.5h0A.49477.49477,0,0,1,64.4605.5ZM56.4004.5a.50126.50126,0,0,1,.5-.5h0a.50808.50808,0,0,1,.5.5h0a.50126.50126,0,0,1-.5.5h0A.49477.49477,0,0,1,56.4004.5ZM48.3403.5a.50808.50808,0,0,1,.5-.5h0a.50158.50158,0,0,1,.5.5h0a.49508.49508,0,0,1-.5.5h0A.50126.50126,0,0,1,48.3403.5Z" style="fill: #fff"/>
        <path d="M40.79,1a.54128.54128,0,0,1-.3598-.1401A.52343.52343,0,0,1,40.29.5a.50127.50127,0,0,1,.1402-.3501A.56876.56876,0,0,1,40.5903.04a.5274.5274,0,0,1,.5498.1099A.51059.51059,0,0,1,41.29.5a.53252.53252,0,0,1-.1499.3599A.51622.51622,0,0,1,40.79,1Z" style="fill: #fff"/>
        <path d="M4.2803,63.7402a.51769.51769,0,0,1-.19-.6904h0a.505.505,0,0,1,.69-.1797h0a.49385.49385,0,0,1,.1802.6797h0a.49577.49577,0,0,1-.4302.25h0A.54111.54111,0,0,1,4.2803,63.7402Zm4.0298-6.9799a.51567.51567,0,0,1-.19-.6905h0a.514.514,0,0,1,.69-.1797h0a.5047.5047,0,0,1,.1801.69h0a.48535.48535,0,0,1-.4301.2397h0A.52.52,0,0,1,8.3101,56.7603Zm4.02-6.98a.50237.50237,0,0,1-.1797-.6802h0a.50734.50734,0,0,1,.6797-.1899h0a.51646.51646,0,0,1,.1899.6899h0a.51.51,0,0,1-.4399.25h0A.47652.47652,0,0,1,12.3301,49.7803Zm4.0303-6.9805a.49267.49267,0,0,1-.1802-.6797h0a.49341.49341,0,0,1,.6802-.1802h0a.50337.50337,0,0,1,.1899.6802h0a.51131.51131,0,0,1-.4399.25h0A.47241.47241,0,0,1,16.3604,42.7998Zm4.0297-6.9697a.5051.5051,0,0,1-.1796-.69h0a.49263.49263,0,0,1,.6796-.1801h0a.50487.50487,0,0,1,.19.6801h0a.52456.52456,0,0,1-.44.25h0A.57369.57369,0,0,1,20.3901,35.8301Zm4.0303-6.98a.50481.50481,0,0,1-.1802-.6899h0a.49329.49329,0,0,1,.6802-.1802h0a.4959.4959,0,0,1,.1797.6802h0a.49552.49552,0,0,1-.4297.25h0A.57188.57188,0,0,1,24.4204,28.8501Zm4.0298-6.98a.49426.49426,0,0,1-.1802-.6802h0A.50363.50363,0,0,1,28.9502,21h0a.50525.50525,0,0,1,.1802.6899h0a.49577.49577,0,0,1-.4302.25h0A.45347.45347,0,0,1,28.4502,21.8701Zm4.0298-6.98a.49351.49351,0,0,1-.1797-.6801h0a.49075.49075,0,0,1,.6797-.1797h0a.49064.49064,0,0,1,.1802.6797h0a.49479.49479,0,0,1-.4302.25h0A.45335.45335,0,0,1,32.48,14.8901Zm4.0303-6.9799a.50287.50287,0,0,1-.19-.6802h0a.50561.50561,0,0,1,.69-.1802h0a.49426.49426,0,0,1,.1801.6802h0a.4957.4957,0,0,1-.4301.25h0A.453.453,0,0,1,36.5103,7.9102Z" style="fill: #fff"/>
        <path d="M.5,70.7803a.46807.46807,0,0,1-.3496-.1504A.46823.46823,0,0,1,0,70.2803a.43974.43974,0,0,1,.04-.1905.35611.35611,0,0,1,.1104-.1596.495.495,0,0,1,.54-.1104.35508.35508,0,0,1,.1597.1104.35611.35611,0,0,1,.1104.1596A.43907.43907,0,0,1,1,70.2803a.40934.40934,0,0,1-.0395.1899.35372.35372,0,0,1-.1104.1597.35488.35488,0,0,1-.1597.1103A.40919.40919,0,0,1,.5,70.7803Z" style="fill: #fff"/>
        <path d="M36.3203,133.3301a.50542.50542,0,0,1,.19-.6802h0a.49377.49377,0,0,1,.6801.1802h0a.49208.49208,0,0,1-.1801.6802h0a.47676.47676,0,0,1-.25.0698h0A.511.511,0,0,1,36.3203,133.3301Zm-4.0303-6.98a.506.506,0,0,1,.19-.6802h0a.49388.49388,0,0,1,.6802.1802h0a.49135.49135,0,0,1-.1802.6802h0a.47528.47528,0,0,1-.25.0698h0A.51135.51135,0,0,1,32.29,126.3501Zm-4.02-6.9702a.50581.50581,0,0,1,.1802-.69h0a.4969.4969,0,0,1,.6802.19h0a.49617.49617,0,0,1-.1802.6802h0a.57336.57336,0,0,1-.25.06h0A.48665.48665,0,0,1,28.27,119.3799Zm-4.0298-6.98a.49067.49067,0,0,1,.1802-.6797h0a.49091.49091,0,0,1,.6797.1797h0a.49364.49364,0,0,1-.1797.6802h0a.45325.45325,0,0,1-.25.0698h0A.49459.49459,0,0,1,24.2402,112.3999Zm-4.0297-6.98a.49082.49082,0,0,1,.1796-.6797h0a.49137.49137,0,0,1,.6802.1797h0a.49324.49324,0,0,1-.1802.6802h0a.453.453,0,0,1-.25.0698h0A.49411.49411,0,0,1,20.2105,105.4199Zm-4.0303-6.98a.49257.49257,0,0,1,.1802-.6796h0a.505.505,0,0,1,.6899.1796h0a.49449.49449,0,0,1-.1899.6802h0a.45347.45347,0,0,1-.25.0698h0A.49494.49494,0,0,1,16.1802,98.4399ZM12.1504,91.46a.504.504,0,0,1,.1797-.6797h0a.49914.49914,0,0,1,.6899.1899h0a.50386.50386,0,0,1-.1797.6797h0a.57318.57318,0,0,1-.25.0601h0A.49874.49874,0,0,1,12.1504,91.46ZM8.1201,84.4902a.50873.50873,0,0,1,.19-.6904h0a.497.497,0,0,1,.6801.1904h0a.49272.49272,0,0,1-.1801.6797h0a.58943.58943,0,0,1-.25.0703h0A.50087.50087,0,0,1,8.1201,84.4902Zm-4.02-6.9799a.49144.49144,0,0,1,.1802-.6802h0a.4934.4934,0,0,1,.6802.1802h0a.49371.49371,0,0,1-.1802.6796h0a.4728.4728,0,0,1-.25.0704h0A.49691.49691,0,0,1,4.1001,77.5103Z" style="fill: #fff"/>
        <path d="M40.79,140.5601a.47891.47891,0,0,1-.1997-.0401.41926.41926,0,0,1-.1601-.1098.50163.50163,0,0,1-.1402-.3501.5831.5831,0,0,1,.0303-.19.96446.96446,0,0,1,.1099-.1699.53551.53551,0,0,1,.1601-.1001.52228.52228,0,0,1,.5498.1001.60405.60405,0,0,1,.1099.1699.58585.58585,0,0,1,.04.19.511.511,0,0,1-.1499.3501A.4679.4679,0,0,1,40.79,140.5601Z" style="fill: #fff"/>
        <path d="M112.8003,140.0601a.49508.49508,0,0,1,.5-.5h0a.49539.49539,0,0,1,.5.5h0a.50158.50158,0,0,1-.5.5h0A.50126.50126,0,0,1,112.8003,140.0601Zm-8.0601,0a.50158.50158,0,0,1,.5-.5h0a.49539.49539,0,0,1,.5.5h0a.50158.50158,0,0,1-.5.5h0A.50808.50808,0,0,1,104.7402,140.0601Zm-8.0498,0a.49514.49514,0,0,1,.5-.5h0a.50152.50152,0,0,1,.5.5h0a.508.508,0,0,1-.5.5h0A.50132.50132,0,0,1,96.6904,140.0601Zm-8.06,0a.49508.49508,0,0,1,.5-.5h0a.49539.49539,0,0,1,.5.5h0a.50158.50158,0,0,1-.5.5h0A.50126.50126,0,0,1,88.6304,140.0601Zm-8.0601,0a.50158.50158,0,0,1,.5-.5h0a.49539.49539,0,0,1,.5.5h0a.50158.50158,0,0,1-.5.5h0A.50808.50808,0,0,1,80.5703,140.0601Zm-8.06,0a.50152.50152,0,0,1,.5-.5h0a.49545.49545,0,0,1,.5.5h0a.50165.50165,0,0,1-.5.5h0A.508.508,0,0,1,72.5103,140.0601Zm-8.0498,0a.49508.49508,0,0,1,.5-.5h0a.50191.50191,0,0,1,.5.5h0a.50842.50842,0,0,1-.5.5h0A.50126.50126,0,0,1,64.4605,140.0601Zm-8.0601,0a.49508.49508,0,0,1,.5-.5h0a.49539.49539,0,0,1,.5.5h0a.50158.50158,0,0,1-.5.5h0A.50126.50126,0,0,1,56.4004,140.0601Zm-8.0601,0a.50158.50158,0,0,1,.5-.5h0a.49539.49539,0,0,1,.5.5h0a.50158.50158,0,0,1-.5.5h0A.50808.50808,0,0,1,48.3403,140.0601Z" style="fill: #fff"/>
        <path d="M121.3604,140.5601a.40622.40622,0,0,1-.19-.0401.4573.4573,0,0,1-.1704-.1098.44215.44215,0,0,1-.0996-.1602.429.429,0,0,1-.04-.1899.40269.40269,0,0,1,.04-.19.59229.59229,0,0,1,.0996-.1699.53068.53068,0,0,1,.5503-.1001.541.541,0,0,1,.1602.1001.62654.62654,0,0,1,.1098.1699.40888.40888,0,0,1,.0401.19.43618.43618,0,0,1-.0401.1899.464.464,0,0,1-.1098.1602.35708.35708,0,0,1-.1602.1098A.43618.43618,0,0,1,121.3604,140.5601Z" style="fill: #fff"/>
        <path d="M125.1401,133.5103a.50363.50363,0,0,1-.1899-.6802h0a.50517.50517,0,0,1,.6899-.1802h0a.49992.49992,0,0,1,.1802.6802h0a.49574.49574,0,0,1-.4302.25h0A.45347.45347,0,0,1,125.1401,133.5103Zm4.0201-6.98a.50051.50051,0,0,1-.1802-.6802h0a.50573.50573,0,0,1,.6904-.1802h0a.50225.50225,0,0,1,.1797.6802h0a.49853.49853,0,0,1-.4399.25h0A.47627.47627,0,0,1,129.1602,126.5303Zm4.0302-6.9702a.49562.49562,0,0,1-.1801-.6802h0a.49918.49918,0,0,1,.6801-.19h0a.50883.50883,0,0,1,.19.69h0a.51157.51157,0,0,1-.44.25h0A.588.588,0,0,1,133.1904,119.5601Zm4.0298-6.98a.49388.49388,0,0,1-.1802-.6802h0a.506.506,0,0,1,.6802-.1899h0a.50517.50517,0,0,1,.1802.6899h0a.49565.49565,0,0,1-.4302.25h0A.47652.47652,0,0,1,137.2202,112.5801Zm4.0298-6.98a.49137.49137,0,0,1-.1797-.6802h0a.49327.49327,0,0,1,.6797-.1797h0a.49288.49288,0,0,1,.1802.6797h0a.49459.49459,0,0,1-.4302.25h0A.47776.47776,0,0,1,141.25,105.6001Zm4.0303-6.98a.49144.49144,0,0,1-.1802-.6802h0a.49126.49126,0,0,1,.6802-.1796h0a.49359.49359,0,0,1,.1802.6796h0a.49577.49577,0,0,1-.4302.25h0A.47652.47652,0,0,1,145.2803,98.6201Zm4.0298-6.9702a.5047.5047,0,0,1-.1797-.6899h0a.49918.49918,0,0,1,.6797-.1797h0a.5022.5022,0,0,1,.1801.6899h0a.50751.50751,0,0,1-.4301.2398h0A.54253.54253,0,0,1,149.3101,91.6499Zm4.0302-6.98a.49591.49591,0,0,1-.1899-.6797h0a.51709.51709,0,0,1,.6899-.1904h0a.5054.5054,0,0,1,.1797.6904h0a.49519.49519,0,0,1-.4297.25h0A.51743.51743,0,0,1,153.3403,84.6699Zm4.0298-6.98a.49627.49627,0,0,1-.1899-.6796h0a.50464.50464,0,0,1,.6899-.1802h0a.49988.49988,0,0,1,.1802.6802h0a.51262.51262,0,0,1-.4399.25h0A.41908.41908,0,0,1,157.3701,77.6899Z" style="fill: #fff"/>
        <path d="M161.6401,70.7803a.50163.50163,0,0,1-.3501-.1402.55432.55432,0,0,1-.1499-.3598A.505.505,0,0,1,162,69.9302a.49768.49768,0,0,1,.1401.3501.54109.54109,0,0,1-.1401.3598A.52325.52325,0,0,1,161.6401,70.7803Z" style="fill: #fff"/>
        <path d="M157.1802,63.5498a.50552.50552,0,0,1,.1899-.6797h0a.49368.49368,0,0,1,.6802.1797h0a.51454.51454,0,0,1-.1802.6904h0a.57136.57136,0,0,1-.25.0596h0A.499.499,0,0,1,157.1802,63.5498Zm-4.0298-6.98a.507.507,0,0,1,.1899-.6797h0a.49585.49585,0,0,1,.6797.19h0a.49584.49584,0,0,1-.1797.6802h0a.57934.57934,0,0,1-.25.0595h0A.52273.52273,0,0,1,153.1504,56.5698Zm-4.02-6.9697a.5047.5047,0,0,1,.1797-.6899h0a.50539.50539,0,0,1,.6801.1899h0a.49345.49345,0,0,1-.1801.6802h0a.47676.47676,0,0,1-.25.0698h0A.49415.49415,0,0,1,149.1304,49.6001Zm-4.0303-6.98a.49146.49146,0,0,1,.1802-.6802h0a.49357.49357,0,0,1,.6802.1802h0a.49148.49148,0,0,1-.1802.6797h0a.47266.47266,0,0,1-.25.0703h0A.49565.49565,0,0,1,145.1001,42.6201Zm-4.0298-6.98a.49359.49359,0,0,1,.1797-.6801h0a.491.491,0,0,1,.6802.1801h0a.49064.49064,0,0,1-.1802.6797h0a.44765.44765,0,0,1-.25.0703h0A.49543.49543,0,0,1,141.0703,35.6401ZM137.04,28.6602a.49384.49384,0,0,1,.1802-.6802h0a.49992.49992,0,0,1,.6802.1802h0a.50517.50517,0,0,1-.1802.6899h0a.54283.54283,0,0,1-.25.0601h0A.497.497,0,0,1,137.04,28.6602Zm-4.0297-6.9703A.5047.5047,0,0,1,133.1904,21h0a.51777.51777,0,0,1,.69.1899h0a.49729.49729,0,0,1-.19.6802h0a.51959.51959,0,0,1-.25.0698h0A.49431.49431,0,0,1,133.0103,21.6899ZM128.98,14.71a.49977.49977,0,0,1,.1802-.6797h0a.5047.5047,0,0,1,.6899.1797h0a.5021.5021,0,0,1-.1797.6801h0a.48753.48753,0,0,1-.2602.0699h0A.49574.49574,0,0,1,128.98,14.71Zm-4.0298-6.98a.50606.50606,0,0,1,.1899-.6802h0a.49418.49418,0,0,1,.6802.1802h0a.49982.49982,0,0,1-.1802.6802h0a.47627.47627,0,0,1-.25.0698h0A.51153.51153,0,0,1,124.9502,7.73Z" style="fill: #fff"/>
      </g>
    </g>
  </g>
</svg>
